<svg xmlns="http://www.w3.org/2000/svg" class="svg" viewBox="0 0 73 51" fill="none"><path d="M56.9691 19.4021C56.9078 18.5187 56.7854 17.6406 56.6027 16.7741C55.6576 12.1532 53.1449 8.00077 49.4898 5.01976C47.2507 3.1711 44.7172 1.87921 41.9213 1.09614C40.9064 0.813836 39.8705 0.613366 38.8235 0.496654C38.2651 0.431129 37.7034 0.396606 37.1412 0.393243C36.8774 0.393243 36.6121 0.348282 36.3521 0.368514C35.7526 0.417222 35.1531 0.416473 34.5582 0.463682C33.9139 0.514016 33.2731 0.601839 32.6391 0.726706C31.2748 0.989767 29.9411 1.39151 28.6585 1.92567C28.2516 2.09653 27.8342 2.24715 27.4595 2.49069C27.4316 2.48898 27.4038 2.49466 27.3788 2.50716C27.3538 2.51966 27.3325 2.53853 27.3172 2.56187C27.2879 2.56107 27.259 2.56748 27.2328 2.58056C27.2067 2.59363 27.1842 2.61295 27.1673 2.63681C26.8382 2.76243 26.5275 2.93154 26.2433 3.13963C26.2156 3.13885 26.1881 3.14536 26.1636 3.1585C26.1392 3.17165 26.1186 3.19098 26.1039 3.21456C25.6656 3.43327 25.2517 3.69777 24.869 4.00363C24.8465 4.01022 24.8246 4.01901 24.8038 4.02986C24.3594 4.33934 23.9046 4.63908 23.5142 5.01601C23.4957 5.01841 23.4782 5.02613 23.464 5.03823C23.4498 5.05034 23.4393 5.0663 23.434 5.0842C23.0106 5.36895 22.6629 5.74063 22.2845 6.07784C22.2355 6.12782 22.1905 6.18143 22.1496 6.23821C22.1319 6.24024 22.1155 6.24815 22.1029 6.26064C22.0902 6.27314 22.0821 6.28952 22.0799 6.30715C21.9997 6.37759 21.9143 6.44278 21.8409 6.51846C21.3567 7.01262 20.8982 7.53136 20.4673 8.07262C20.2979 8.28619 20.1084 8.48552 19.9847 8.73281C19.7295 9.01384 19.511 9.32606 19.3343 9.662C19.1844 9.80363 19.093 9.98723 18.9903 10.1603C18.8075 10.4668 18.5992 10.7598 18.4718 11.0963C18.3882 11.1815 18.3241 11.2837 18.2837 11.396C18.1098 11.7452 17.9367 12.0952 17.7741 12.4504C17.6617 12.6961 17.5276 12.9344 17.4744 13.2042C17.4511 13.2307 17.4309 13.2599 17.4144 13.2911C17.1067 14.0568 16.8434 14.8397 16.6261 15.6359C16.6118 15.706 16.6028 15.7772 16.5991 15.8487C16.5733 15.9012 16.5512 15.9556 16.5332 16.0113C16.1934 17.3668 16 18.7547 15.9562 20.1515C15.917 21.1305 15.9466 22.111 16.0446 23.0859C16.1272 23.8928 16.2604 24.6937 16.4433 25.4839C16.4875 25.6682 16.51 25.8585 16.6006 26.0294C16.6081 26.1123 16.6206 26.1946 16.6381 26.2759C16.8327 26.9921 17.065 27.6975 17.3343 28.3891C17.3725 28.4865 17.3867 28.5997 17.4721 28.6761C17.4802 28.7223 17.4915 28.7679 17.5059 28.8125C17.7382 29.3835 18.0102 29.9365 18.2949 30.4836C18.325 30.5333 18.3588 30.5806 18.3961 30.6252C18.3949 30.6545 18.4011 30.6836 18.4142 30.7098C18.4273 30.736 18.4469 30.7585 18.471 30.7751C18.7094 31.2817 18.9992 31.7626 19.3358 32.2101C19.4499 32.4416 19.5962 32.6558 19.7704 32.8463C19.8814 33.0616 20.0267 33.2575 20.2005 33.4263C20.3808 33.7149 20.596 33.9802 20.8412 34.2161C20.845 34.2339 20.8537 34.2504 20.8663 34.2636C20.8788 34.2768 20.8948 34.2863 20.9124 34.291C20.9577 34.341 21.0029 34.3909 21.0481 34.4409C21.0515 34.4673 21.0619 34.4924 21.0782 34.5135C21.0946 34.5345 21.1162 34.5509 21.141 34.5608L21.1485 34.569C21.1499 34.5856 21.1568 34.6012 21.168 34.6134C21.1793 34.6256 21.1943 34.6337 21.2107 34.6365V34.641C21.3637 34.8646 21.5564 35.0581 21.7794 35.212C21.9338 34.8763 22.1016 34.5683 22.2238 34.2378C22.249 34.2127 22.2716 34.1851 22.2912 34.1554C22.6709 33.4245 23.1069 32.7243 23.5951 32.061L23.6146 32.031C23.6345 32.0086 23.6459 31.9799 23.6466 31.95C23.6473 31.92 23.6372 31.8908 23.6183 31.8676C23.5891 31.8302 23.5599 31.7927 23.5292 31.756C23.1148 31.2481 22.7274 30.7188 22.3684 30.1703C22.3227 30.1014 22.2673 30.0399 22.2185 29.9755C21.9787 29.5664 21.7395 29.1572 21.5007 28.7481C21.5017 28.7203 21.4954 28.6927 21.4822 28.6682C21.469 28.6436 21.4495 28.6231 21.4257 28.6087V28.6049C21.4255 28.5837 21.4198 28.5629 21.4093 28.5444C21.3989 28.5259 21.3839 28.5104 21.3658 28.4993C21.3534 28.4536 21.3387 28.4085 21.3216 28.3644C21.0623 27.8386 20.8297 27.3002 20.6247 26.751C20.6091 26.7192 20.5894 26.6894 20.5662 26.6626C20.5706 26.6317 20.5671 26.6002 20.5561 26.571C20.5451 26.5418 20.5269 26.5158 20.5033 26.4955C20.507 26.4871 20.5077 26.4778 20.5054 26.4689C20.5031 26.4601 20.4978 26.4523 20.4905 26.4468C20.4953 26.4168 20.4922 26.386 20.4816 26.3575C20.471 26.329 20.4531 26.3037 20.4298 26.2842C20.4337 26.2755 20.4345 26.2657 20.4322 26.2565C20.4299 26.2473 20.4246 26.2391 20.4171 26.2332C20.3377 25.9462 20.2672 25.6577 20.1773 25.3737C20.1106 25.1579 20.0949 24.9279 19.9915 24.7225C19.9323 24.3703 19.8798 24.0166 19.8116 23.6659C19.7682 23.4411 19.7816 23.2111 19.6992 22.9953C19.6992 22.7974 19.7217 22.5974 19.6385 22.4085C19.6385 22.3658 19.6385 22.3231 19.6333 22.2804C19.6295 21.8203 19.6243 21.3594 19.6243 20.8993C19.6243 20.5689 19.6303 20.2384 19.6333 19.9079L19.6385 19.7805C19.7247 19.5655 19.7022 19.3407 19.7037 19.1174C19.7292 19.0253 19.749 18.9317 19.7629 18.8371C19.8034 18.3343 19.9128 17.8435 20.0005 17.3489C20.0447 17.1023 20.1346 16.8648 20.1466 16.6115V16.6078C20.217 16.5471 20.2148 16.4661 20.2118 16.383C20.2189 16.378 20.2238 16.3704 20.2253 16.3618C20.2269 16.3532 20.2249 16.3444 20.22 16.3373C20.2477 16.3045 20.2682 16.2663 20.2802 16.2251C20.2922 16.1839 20.2954 16.1407 20.2897 16.0982C20.3168 16.0694 20.3368 16.0347 20.3484 15.9969C20.36 15.9591 20.3627 15.9192 20.3564 15.8801C20.3836 15.8518 20.404 15.8177 20.4159 15.7802C20.4279 15.7428 20.4311 15.7032 20.4253 15.6643C20.4658 15.5654 20.5108 15.468 20.546 15.3646C20.9017 14.3224 21.365 13.3201 21.9285 12.3739L22.3692 11.6358C22.4141 11.5811 22.4621 11.5286 22.504 11.4724C22.7851 11.1015 23.0638 10.7291 23.3441 10.3582C23.473 10.1873 23.6438 10.0472 23.745 9.85609L24.603 8.98909C24.7708 8.81923 24.9384 8.64938 25.1058 8.47952L26.3984 7.40345C26.4179 7.40045 26.4361 7.39173 26.4507 7.37839C26.4652 7.36505 26.4755 7.34769 26.4801 7.32852C26.4803 7.33051 26.4803 7.33252 26.4801 7.33451C26.847 7.11109 27.2022 6.86898 27.5442 6.60914C27.6191 6.57167 27.6941 6.5387 27.769 6.49598C29.1316 5.66829 30.6044 5.03758 32.1437 4.6226C33.1016 4.35756 34.0828 4.18541 35.0737 4.10854C35.7776 4.04782 36.4848 4.0328 37.1906 4.06358C38.0392 4.10596 38.884 4.20611 39.719 4.36332C41.8413 4.7729 43.8633 5.59251 45.6718 6.77624C46.9343 7.607 48.0867 8.59398 49.1016 9.71371C49.9268 10.6129 50.6463 11.6035 51.2463 12.6662C52.5029 14.8962 53.1639 17.3047 53.3392 19.8457C53.4249 20.9936 53.389 22.1472 53.2321 23.2875C53.0891 24.3087 52.8507 25.3142 52.5202 26.2909C51.8518 28.2497 50.8334 30.0167 49.558 31.6398C49.4913 31.7245 49.4246 31.8092 49.3609 31.8961C49.3454 31.9145 49.3364 31.9375 49.335 31.9615C49.3337 31.9856 49.3401 32.0094 49.3534 32.0295C49.3864 32.0797 49.4209 32.1284 49.4561 32.1793C50.076 33.0475 50.6114 33.9729 51.0552 34.943C51.0799 34.9977 51.1047 35.0524 51.1301 35.1048C51.1826 35.203 51.2358 35.2097 51.325 35.1266C51.3947 35.0614 51.4636 34.9939 51.5265 34.922C51.8188 34.5885 52.1155 34.2596 52.3973 33.9179C53.6502 32.4003 54.6707 30.7049 55.4254 28.8874C56.0452 27.4196 56.4899 25.8838 56.7503 24.3119C56.9325 23.2617 57.0228 22.1975 57.0201 21.1316C57.0163 20.5509 57.0073 19.9769 56.9691 19.4021Z" fill="#1586E3"></path><path d="M36.521 29.5059C33.7071 29.5059 31.1368 30.2724 28.8273 31.8911C26.9427 33.2114 25.0116 35.467 24.4541 37.0211H48.4252C48.4373 37.0202 48.4486 37.0152 48.4574 37.0069C48.4645 36.9987 48.4701 36.9893 48.4739 36.9792C47.0179 33.7105 42.8215 29.5141 36.521 29.5059Z" fill="#3A4351"></path><path d="M42.5408 21.2585C42.5325 19.6615 41.8942 18.1322 40.7647 17.0031C39.6352 15.874 38.1057 15.2363 36.5086 15.2286C34.9115 15.2209 33.3759 15.8438 32.2355 16.962C31.0952 18.0801 30.4422 19.6032 30.4185 21.2001C30.4073 24.6539 33.1971 27.3223 36.4508 27.3141C37.2493 27.3199 38.041 27.1675 38.7803 26.8657C39.5195 26.5639 40.1917 26.1186 40.7579 25.5556C41.3241 24.9926 41.7732 24.3229 42.0792 23.5854C42.3852 22.8479 42.5421 22.057 42.5408 21.2585Z" fill="#3A4351"></path><path d="M50.8153 19.2273C50.6229 17.9109 50.246 16.6281 49.6957 15.4168C49.5459 15.0804 49.396 14.7379 49.1809 14.4352C49.0101 14.0275 48.7568 13.6671 48.511 13.3044C48.2982 12.9919 48.1011 12.6652 47.8231 12.4007C47.5561 12.0061 47.241 11.6464 46.8849 11.3299C46.5682 10.9499 46.2066 10.6098 45.8081 10.3167C45.5073 10.0131 45.1685 9.74967 44.8002 9.53291C44.4261 9.22225 44.0139 8.96061 43.5735 8.75433C43.2165 8.51265 42.8306 8.31678 42.4248 8.17133C42.0394 7.95753 41.6291 7.79192 41.2033 7.67826C40.8133 7.50594 40.4028 7.38455 39.9819 7.31707C39.871 7.24213 39.7376 7.23539 39.6124 7.20991C39.2378 7.13497 38.8631 7.02707 38.4712 7.02632C38.1272 6.91841 37.7683 6.92216 37.4161 6.89668C36.7879 6.85996 36.1581 6.85996 35.5299 6.89668C35.4243 6.90118 35.3149 6.89668 35.2182 6.95138C35.0002 6.95138 34.7798 6.93565 34.5715 7.02632C34.2826 7.02516 33.9955 7.07175 33.7218 7.1642L33.6521 7.17769C33.5476 7.16006 33.4403 7.18312 33.3523 7.24213C32.9794 7.28514 32.6145 7.38128 32.2688 7.52764C31.7774 7.63851 31.3019 7.81045 30.8532 8.03944C30.3898 8.19686 29.9478 8.41132 29.5374 8.67789C29.0512 8.90392 28.5947 9.18881 28.178 9.52616C28.1496 9.52854 28.1223 9.53829 28.0987 9.55445C28.0752 9.57061 28.0563 9.59263 28.0439 9.61833C27.5675 9.91825 27.1296 10.2754 26.74 10.6817C26.722 10.6847 26.7053 10.693 26.6919 10.7056C26.6786 10.7181 26.6693 10.7343 26.6651 10.7521C26.6453 10.7565 26.6268 10.7656 26.6113 10.7786C26.5958 10.7917 26.5836 10.8083 26.5759 10.827C26.5975 10.8263 26.6183 10.8186 26.6352 10.8051C26.652 10.7916 26.6641 10.773 26.6696 10.7521C26.6643 10.7731 26.6523 10.7919 26.6354 10.8054C26.6185 10.8189 26.5976 10.8265 26.5759 10.827C26.4012 10.9519 26.2433 11.0987 26.1061 11.2639C25.7801 11.6116 25.4376 11.9458 25.1754 12.3482C25.1397 12.3784 25.1062 12.4109 25.075 12.4456C24.5348 13.1278 24.0583 13.858 23.6512 14.627C23.627 14.6804 23.6063 14.7352 23.589 14.7911C23.5395 14.8859 23.4918 14.9816 23.4459 15.0781C23.4222 15.0936 23.4033 15.1153 23.3912 15.1408C23.379 15.1663 23.3741 15.1946 23.3769 15.2228C23.3543 15.2378 23.3363 15.2588 23.3246 15.2833C23.313 15.3079 23.3083 15.3351 23.311 15.3621C23.2091 15.485 23.1656 15.6371 23.1064 15.7795C22.5511 17.1182 22.2005 18.5329 22.0663 19.9759C21.9607 21.0372 21.971 22.1068 22.097 23.1659C22.2439 24.3669 22.5462 25.5438 22.9962 26.6669C23.1116 26.9554 23.2121 27.2499 23.3799 27.5144C23.3776 27.5415 23.3828 27.5688 23.3948 27.5932C23.4068 27.6176 23.4252 27.6383 23.4481 27.653C23.4453 27.6809 23.4503 27.709 23.4626 27.7342C23.4749 27.7594 23.494 27.7806 23.5178 27.7954C23.5154 27.8232 23.5208 27.8511 23.5333 27.876C23.5459 27.9009 23.5652 27.9218 23.589 27.9363C23.6062 27.9924 23.6272 28.0472 23.6519 28.1004C24.0051 28.7782 24.4149 29.425 24.8771 30.0337C24.9348 30.1087 25.0023 30.1761 25.0652 30.2473C25.1039 30.3468 25.1746 30.4306 25.266 30.4856C25.3552 30.4691 25.4062 30.4002 25.4676 30.3485C25.7749 30.0884 26.0791 29.8239 26.3871 29.5661C26.6036 29.3841 26.824 29.2065 27.0428 29.0274L27.9877 28.3889C28.0626 28.335 28.1451 28.281 28.22 28.2218C28.23 28.2152 28.2385 28.2067 28.2452 28.1968C28.2518 28.1869 28.2565 28.1758 28.2588 28.164C28.2611 28.1523 28.261 28.1403 28.2586 28.1286C28.2562 28.1169 28.2515 28.1058 28.2447 28.0959C28.1983 28.027 28.1481 27.9595 28.0949 27.8936C27.7466 27.4397 27.4318 26.9611 27.1529 26.4616C27.1159 26.4017 27.0759 26.3436 27.033 26.2877C26.9903 26.1896 26.9506 26.0906 26.9034 25.9947C26.3707 24.9231 26.0315 23.7658 25.9015 22.5762C25.8108 21.6959 25.8244 20.808 25.942 19.9309C26.0723 18.8992 26.3517 17.8918 26.7715 16.9403C26.8142 16.8429 26.8817 16.7552 26.8891 16.6405C26.9242 16.5925 26.9565 16.5424 26.9858 16.4907C27.3182 15.8432 27.7186 15.2331 28.1803 14.6705C28.2081 14.6324 28.2332 14.5923 28.2552 14.5506C28.3005 14.5134 28.3435 14.4737 28.3841 14.4314C28.7438 14.0179 29.1333 13.6312 29.5494 13.2744C29.6026 13.2287 29.6475 13.1733 29.6992 13.1246C29.9937 12.9125 30.2875 12.6989 30.5842 12.4891C30.7656 12.3617 30.9521 12.2411 31.1365 12.1144C31.3261 12.0193 31.5149 11.9233 31.7045 11.8297L32.4329 11.4715L33.724 11.0331C34.0636 10.98 34.3999 10.9071 34.7311 10.8151C34.7694 10.8153 34.8075 10.8117 34.845 10.8046L36.2403 10.6719L37.0069 10.7026C37.0938 10.7529 37.1913 10.7431 37.2849 10.7529C37.5809 10.7843 37.8769 10.8121 38.1722 10.8488C38.337 10.8683 38.4959 10.9282 38.6652 10.9192C39.0169 11.0342 39.3746 11.1295 39.7368 11.2047C39.7567 11.2281 39.7824 11.2459 39.8114 11.2563C39.8403 11.2667 39.8714 11.2693 39.9017 11.2639L39.9264 11.2804H39.9564C40.1873 11.3989 40.4296 11.4938 40.6795 11.5637C40.6974 11.5876 40.7211 11.6066 40.7484 11.6188C40.7757 11.631 40.8056 11.636 40.8354 11.6333C40.8519 11.6572 40.8745 11.6761 40.9009 11.6881C40.9273 11.7002 40.9564 11.7048 40.9852 11.7015L42.2734 12.4232L43.4176 13.2872C43.4233 13.3053 43.4338 13.3216 43.4481 13.3341C43.4624 13.3467 43.4798 13.3551 43.4986 13.3584C43.5765 13.473 43.6789 13.569 43.7983 13.6394C43.967 13.8482 44.1566 14.0393 44.3641 14.2096L44.3693 14.2164C44.3705 14.2335 44.3776 14.2497 44.3893 14.2623C44.4011 14.2748 44.4168 14.2829 44.4338 14.2853L44.4375 14.2891C44.4387 14.3072 44.4459 14.3244 44.458 14.338C44.4701 14.3515 44.4863 14.3607 44.5042 14.364C44.507 14.3818 44.515 14.3984 44.5271 14.4117C44.5392 14.425 44.555 14.4345 44.5724 14.4389L45.1966 15.2332C45.2022 15.2618 45.2138 15.2888 45.2306 15.3126C45.2474 15.3363 45.269 15.3563 45.294 15.3711C45.295 15.3888 45.3012 15.4058 45.3119 15.42C45.3226 15.4341 45.3372 15.4448 45.354 15.4506C45.3552 15.4785 45.3637 15.5057 45.3785 15.5295C45.3933 15.5533 45.4141 15.5728 45.4387 15.5862C45.4391 15.6039 45.4449 15.6211 45.4553 15.6354C45.4658 15.6498 45.4803 15.6606 45.4971 15.6664C45.4977 15.6945 45.5056 15.7221 45.5199 15.7463C45.5342 15.7706 45.5545 15.7908 45.5788 15.805C45.598 15.8869 45.6348 15.9636 45.6867 16.0298C45.9908 16.5557 46.2481 17.1074 46.4555 17.6784C46.5237 17.8687 46.5957 18.0576 46.6654 18.2464C46.6811 18.3281 46.6938 18.4098 46.7141 18.4899C46.964 19.4355 47.0961 20.4083 47.1075 21.3862C47.1144 22.2702 47.0092 23.1515 46.7942 24.0089C46.7658 24.1243 46.744 24.2412 46.7193 24.3574C46.6624 24.4098 46.6601 24.4855 46.6376 24.5522C46.4174 25.2223 46.1344 25.8702 45.7924 26.487C45.4984 27.0073 45.1691 27.5067 44.807 27.982C44.6571 28.1783 44.6608 28.1948 44.8706 28.3447C45.0805 28.4946 45.3045 28.6407 45.5173 28.7943C45.9227 29.0896 46.3251 29.3885 46.7283 29.686C46.902 29.8753 47.0974 30.0433 47.3105 30.1866C47.3329 30.211 47.358 30.2326 47.3855 30.2511L47.3915 30.2556C47.411 30.2957 47.4392 30.331 47.474 30.3589C47.5089 30.3868 47.5496 30.4065 47.5931 30.4167C47.5933 30.4149 47.5933 30.4132 47.5931 30.4114C47.668 30.5043 47.6822 30.5051 47.7504 30.4114C47.7691 30.4081 47.7862 30.3991 47.7996 30.3857C47.813 30.3723 47.822 30.3551 47.8254 30.3365C47.8712 30.3 47.9141 30.26 47.9535 30.2166C48.2574 29.8385 48.5382 29.4424 48.7943 29.0304C48.9336 28.7988 49.0985 28.5807 49.1884 28.3207C49.2505 28.264 49.2973 28.1926 49.3248 28.1131C50.3477 26.1746 50.864 24.1004 50.9696 21.9182C51.006 21.0184 50.9543 20.1171 50.8153 19.2273Z" fill="#FFB017"></path><path d="M47.3867 30.2467L47.311 30.1816C47.3143 30.1995 47.3236 30.2157 47.3374 30.2276C47.3512 30.2394 47.3686 30.2462 47.3867 30.2467Z" fill="#FFB017"></path><path d="M61.904 47.6836C62.0374 47.6034 62.1408 47.5442 62.2412 47.4798C62.8511 47.1052 63.2897 46.5062 63.4627 45.8117C63.5554 45.4508 63.5858 45.0768 63.5526 44.7057C63.4589 43.6513 62.9719 42.8503 62.0352 42.3347C61.8772 42.2499 61.7134 42.1763 61.5451 42.1144C60.9925 41.9158 60.4087 41.8183 59.8216 41.8267H56.1902C55.8582 41.8267 55.8822 41.8199 55.8822 42.1444C55.8822 44.7686 55.8822 47.3929 55.8822 50.0171C55.8822 50.092 55.8822 50.161 55.8822 50.2329C55.8828 50.2569 55.8926 50.2798 55.9097 50.2967C55.9267 50.3136 55.9496 50.3232 55.9736 50.3236C56.0212 50.3285 56.069 50.3307 56.1168 50.3303C56.7632 50.3303 57.4101 50.3303 58.0576 50.3303C58.1054 50.3308 58.1532 50.3283 58.2007 50.3228C58.2246 50.3217 58.2471 50.3116 58.2638 50.2945C58.2805 50.2774 58.2901 50.2546 58.2906 50.2307C58.2959 50.1467 58.2959 50.0628 58.2959 49.9789V48.4704C58.2959 48.3865 58.2959 48.3026 58.2959 48.2187C58.2959 48.1347 58.3206 48.08 58.4143 48.08C58.774 48.08 59.1337 48.08 59.4926 48.08C59.5284 48.0785 59.564 48.0866 59.5956 48.1035C59.6272 48.1203 59.6538 48.1454 59.6724 48.1759C59.7189 48.2464 59.7661 48.3153 59.8133 48.3843C60.2157 48.9837 60.6204 49.5735 61.0183 50.1722C61.0496 50.2289 61.0964 50.2755 61.1532 50.3065C61.21 50.3376 61.2744 50.3518 61.339 50.3476C62.0704 50.3408 62.801 50.3476 63.5324 50.3476C63.5601 50.3538 63.5892 50.3495 63.6141 50.3357C63.6389 50.3219 63.6578 50.2995 63.6673 50.2726C63.3967 49.8582 63.1 49.4409 62.8122 49.0182C62.5177 48.5768 62.2188 48.143 61.904 47.6836ZM61.0235 45.506C60.9207 45.7514 60.7272 45.9476 60.4833 46.0538C60.2884 46.146 60.0767 46.197 59.8613 46.2036C59.3839 46.2141 58.9059 46.2096 58.4285 46.2126C58.4108 46.2153 58.3927 46.2138 58.3756 46.2081C58.3586 46.2025 58.3431 46.193 58.3304 46.1803C58.3178 46.1676 58.3082 46.1522 58.3026 46.1351C58.297 46.1181 58.2955 46.1 58.2981 46.0822V44.974C58.2981 44.6038 58.2981 44.2336 58.2981 43.8634C58.2981 43.7885 58.3206 43.718 58.4143 43.718C58.8916 43.718 59.369 43.724 59.8463 43.7308C59.9179 43.7358 59.989 43.7461 60.0591 43.7615C60.9254 43.8994 61.3652 44.6974 61.0235 45.506Z" fill="#3A4351"></path><path d="M54.5418 48.5903C54.5417 48.5754 54.5387 48.5606 54.5328 48.5468C54.527 48.533 54.5186 48.5205 54.5079 48.51C54.4973 48.4995 54.4846 48.4912 54.4708 48.4856C54.4569 48.4799 54.4421 48.4771 54.4271 48.4772C54.3312 48.4727 54.2353 48.4734 54.1401 48.4734H50.5095C50.4136 48.4734 50.3177 48.4734 50.2218 48.4734C50.1259 48.4734 50.0996 48.4195 50.0996 48.3363C50.0996 47.9167 50.0996 47.497 50.0996 47.0781C50.0964 47.0543 50.0993 47.0301 50.1079 47.0077C50.1251 46.98 50.1521 46.9425 50.1776 46.9402C50.273 46.9326 50.3688 46.9299 50.4646 46.932H53.4485C53.5324 46.932 53.6163 46.932 53.7003 46.932C53.8501 46.9275 53.8689 46.9118 53.8704 46.7671C53.8704 46.3842 53.8704 46.0006 53.8704 45.6169C53.8704 45.485 53.8704 45.3531 53.8651 45.222C53.8659 45.2101 53.8641 45.1981 53.8599 45.187C53.8557 45.1758 53.8492 45.1656 53.8407 45.1572C53.8323 45.1488 53.8221 45.1422 53.811 45.138C53.7998 45.1338 53.7879 45.132 53.776 45.1328C53.692 45.1298 53.6081 45.1283 53.5242 45.1283C52.5777 45.1283 51.6306 45.1283 50.6841 45.1283C50.4968 45.1283 50.3035 45.1725 50.1214 45.0871C50.0704 44.911 50.1026 44.7304 50.0981 44.5521C50.0929 44.313 50.0981 44.0732 50.0981 43.8334C50.0953 43.8157 50.0967 43.7975 50.1023 43.7804C50.1078 43.7633 50.1174 43.7477 50.1301 43.735C50.1428 43.7223 50.1583 43.7127 50.1755 43.7072C50.1926 43.7016 50.2108 43.7002 50.2285 43.703C50.3124 43.703 50.3956 43.703 50.4795 43.703H53.7175C53.8854 43.703 54.0532 43.703 54.2211 43.703C54.3462 43.703 54.3709 43.6776 54.3709 43.5592C54.3709 43.2841 54.3709 43.0084 54.3709 42.7349C54.3709 42.4831 54.3709 42.2313 54.3709 41.9795C54.3709 41.8626 54.344 41.8431 54.2211 41.8379C54.1739 41.8379 54.1259 41.8379 54.0779 41.8379H48.0022C47.9422 41.8379 47.8823 41.8379 47.8223 41.8379C47.7624 41.8379 47.7077 41.8716 47.7047 41.9451C47.7047 42.0402 47.7002 42.1361 47.7002 42.2321C47.7002 43.5144 47.7002 44.7968 47.7002 46.0792C47.7002 47.4216 47.7002 48.7637 47.7002 50.1055C47.7002 50.3401 47.7099 50.3461 47.94 50.3506C47.9879 50.3506 48.0359 50.3506 48.0839 50.3506H54.1596C54.2346 50.3506 54.3035 50.3506 54.3754 50.3506C54.5133 50.3453 54.5448 50.3183 54.5455 50.1812C54.5455 49.7256 54.5455 49.27 54.5455 48.8151C54.547 48.7342 54.5478 48.6623 54.5418 48.5903Z" fill="#3A4351"></path><path d="M72.4347 44.0595C72.186 43.1678 71.6015 42.569 70.7704 42.2011C70.1862 41.9482 69.5554 41.8205 68.9188 41.8264C67.6621 41.8264 66.4047 41.8264 65.148 41.8264C65.1001 41.8264 65.0521 41.8264 65.0049 41.8264C64.9899 41.8254 64.9749 41.8275 64.9609 41.8326C64.9468 41.8377 64.9339 41.8457 64.9231 41.8561C64.9123 41.8664 64.9038 41.879 64.8981 41.8928C64.8925 41.9067 64.8898 41.9216 64.8902 41.9366C64.8902 42.0325 64.8857 42.1284 64.8857 42.2236V49.9112C64.8857 49.9951 64.8857 50.0791 64.8857 50.1623C64.891 50.3031 64.9127 50.3294 65.0551 50.3294C65.749 50.3294 66.4432 50.3294 67.1376 50.3294C67.2792 50.3294 67.2972 50.3084 67.2972 50.157C67.2972 49.5942 67.2972 49.033 67.2972 48.4695C67.2972 48.0753 67.2649 48.109 67.6718 48.106C68.2226 48.106 68.7741 48.1143 69.3204 48.0835C69.9811 48.0536 70.6235 47.8577 71.1886 47.514C71.7621 47.1757 72.1917 46.6387 72.3958 46.0048C72.6033 45.3749 72.6169 44.6972 72.4347 44.0595ZM70.1042 45.1528C70.057 45.5949 69.8375 45.9127 69.4186 46.0813C69.2191 46.1639 69.0058 46.2083 68.7899 46.2124C68.347 46.2124 67.9041 46.2124 67.4605 46.2124C67.3181 46.2124 67.3017 46.1937 67.3009 46.0401C67.3009 45.6811 67.3009 45.3214 67.3009 44.9625C67.3009 44.5878 67.3009 44.2199 67.3009 43.8489C67.3009 43.765 67.3406 43.7133 67.4298 43.7148C67.9678 43.7276 68.5074 43.6713 69.0432 43.7598C69.1613 43.7768 69.2773 43.8062 69.3894 43.8474C69.839 44.0198 70.072 44.3533 70.108 44.8284C70.1166 44.9364 70.1154 45.045 70.1042 45.1528Z" fill="#3A4351"></path><path d="M17.7669 42.1452C17.7669 42.1213 17.7669 42.0973 17.7669 42.0703C17.7632 41.8283 17.7632 41.826 17.5361 41.8245C17.1775 41.8245 16.818 41.8245 16.4578 41.8245C16.3394 41.8245 16.2068 41.805 16.1049 41.85C15.9842 41.9032 15.9618 42.0613 15.9048 42.176C15.082 43.838 14.2607 45.5008 13.4409 47.1644C13.3997 47.2468 13.3832 47.3495 13.2626 47.4162C13.2266 47.3488 13.1974 47.297 13.1712 47.2438C12.3404 45.5728 11.5098 43.9012 10.6796 42.2292C10.6316 42.1325 10.5814 42.0373 10.5349 41.9399C10.5188 41.9016 10.4908 41.8695 10.455 41.8484C10.4193 41.8272 10.3777 41.818 10.3364 41.8223C9.92945 41.8223 9.5218 41.8223 9.1149 41.8223C8.74023 41.8223 8.7732 41.7885 8.7732 42.1752C8.7732 44.773 8.7732 47.3727 8.7732 49.9745C8.7732 50.0584 8.7732 50.1423 8.7732 50.2263C8.7732 50.3102 8.82266 50.3312 8.8886 50.3334C8.99618 50.339 9.10399 50.339 9.21157 50.3334C9.50682 50.3154 9.80506 50.3791 10.0966 50.2922C10.1618 50.0097 10.1235 49.7227 10.1243 49.438C10.1288 47.7841 10.1243 46.1311 10.1243 44.478C10.1243 44.3633 10.131 44.2532 10.1355 44.1288C10.2269 44.152 10.2367 44.2172 10.2607 44.2652C10.3641 44.4675 10.4607 44.6736 10.5604 44.8774C11.2708 46.3281 11.9842 47.7766 12.6886 49.2304C12.768 49.3967 12.8624 49.4747 13.0415 49.4484C13.0665 49.4468 13.0915 49.4468 13.1165 49.4484L13.7242 49.429C13.8673 49.2791 13.9175 49.0753 14.0157 48.8999C14.0449 48.8475 14.0689 48.792 14.0951 48.7388C14.813 47.2781 15.5314 45.8181 16.2503 44.3588C16.2892 44.2801 16.2997 44.1737 16.4316 44.1265C16.4393 44.2082 16.4416 44.2903 16.4383 44.3723L16.4473 49.8351C16.4473 49.919 16.4473 50.003 16.4473 50.0869C16.4473 50.3304 16.4511 50.3327 16.6766 50.3349C16.9284 50.3349 17.1802 50.3349 17.432 50.3349C17.7894 50.3349 17.7632 50.3671 17.7632 50.0105L17.7669 42.1452Z" fill="#3A4351"></path><path d="M34.2637 47.6988C34.1453 47.522 34.1063 47.5175 34.3536 47.3991C35.1284 47.0244 35.5968 46.4084 35.7969 45.5796C35.8933 45.1703 35.9169 44.7472 35.8666 44.3297C35.7444 43.2596 35.1921 42.5095 34.1783 42.1139C34.1116 42.0877 34.0434 42.0644 33.9752 42.0389C33.4938 41.8903 32.9922 41.818 32.4885 41.8246C31.4344 41.8246 30.38 41.8246 29.3254 41.8246H29.1456C29.0624 41.8246 29.0092 41.8584 29.0062 41.9483C29.0032 42.0382 29.0062 42.1154 29.0062 42.1993V49.9701C29.0062 50.054 29.0062 50.138 29.0062 50.2219C29.0049 50.2369 29.0066 50.252 29.0115 50.2663C29.0163 50.2806 29.024 50.2937 29.0341 50.3048C29.0443 50.316 29.0566 50.3249 29.0704 50.331C29.0842 50.3371 29.0991 50.3403 29.1141 50.3403C29.5218 50.3403 29.9287 50.3403 30.3363 50.3403C30.3482 50.3412 30.3602 50.3397 30.3714 50.3357C30.3827 50.3318 30.393 50.3255 30.4017 50.3173C30.4104 50.3091 30.4172 50.2992 30.4219 50.2882C30.4265 50.2772 30.4287 50.2653 30.4285 50.2534C30.4337 50.1702 30.4345 50.0863 30.4345 50.0023V48.1297C30.4345 48.0465 30.4345 47.9618 30.4405 47.8787C30.4421 47.8547 30.4526 47.8321 30.4699 47.8154C30.4872 47.7986 30.5101 47.7889 30.5341 47.788C30.6173 47.782 30.702 47.7813 30.7852 47.7813H32.475C32.8497 47.7813 32.8534 47.7813 33.0565 48.1162C33.4664 48.7906 33.8808 49.4651 34.2839 50.144C34.3656 50.2811 34.4548 50.3508 34.6226 50.3455C35.0295 50.3343 35.4372 50.3455 35.8448 50.3455C35.8898 50.3455 35.94 50.353 35.9805 50.2901C35.961 50.1927 35.8838 50.1147 35.8261 50.0286C35.307 49.2497 34.7862 48.4732 34.2637 47.6988ZM33.5893 46.287C33.2672 46.4182 32.9224 46.4844 32.5746 46.4819C31.9414 46.4909 31.3082 46.4819 30.6743 46.4751L30.4435 46.3702C30.4382 46.287 30.4375 46.2031 30.4375 46.1192C30.4375 45.6771 30.4375 45.2349 30.4375 44.7928C30.4375 44.3507 30.4375 43.9078 30.4375 43.4657C30.4375 43.3818 30.4375 43.2986 30.4427 43.2147C30.4433 43.1908 30.4529 43.168 30.4695 43.1509C30.4862 43.1338 30.5088 43.1236 30.5326 43.1225C30.5799 43.1177 30.6275 43.1154 30.675 43.1158H32.6121C32.9115 43.1152 33.2088 43.1659 33.4911 43.2656C34.1468 43.4964 34.4967 43.9723 34.5177 44.6669C34.5287 44.87 34.511 45.0735 34.4653 45.2717C34.4134 45.5 34.3061 45.712 34.1529 45.889C33.9998 46.0661 33.8054 46.2028 33.587 46.287H33.5893Z" fill="#3A4351"></path><path d="M24.9836 43.7351C24.749 43.1978 24.5182 42.6598 24.2799 42.1248C24.1301 41.7831 24.1945 41.831 23.8423 41.825C23.5546 41.825 23.2676 41.825 22.9806 41.825C22.6359 41.825 22.6951 41.7733 22.5414 42.118C22.5362 42.1285 22.5295 42.139 22.525 42.1495C21.3919 44.7198 20.2594 47.2903 19.1274 49.8611C19.0652 50.0012 18.9693 50.1301 18.9678 50.2927C19.1176 50.3879 19.29 50.3294 19.4511 50.3354C19.7261 50.3467 20.0019 50.3354 20.2754 50.3392C20.3172 50.3419 20.3588 50.331 20.3938 50.308C20.4288 50.285 20.4554 50.2512 20.4695 50.2118C20.5032 50.1369 20.5332 50.0567 20.5654 49.9802C20.7535 49.5404 20.9528 49.105 21.1237 48.6591C21.1986 48.465 21.305 48.4178 21.4983 48.4208C22.157 48.4321 22.815 48.4253 23.4736 48.4253C24.0964 48.4253 24.7191 48.4253 25.341 48.4253C25.4669 48.4253 25.5449 48.4643 25.5868 48.5827C25.6101 48.6501 25.6408 48.7153 25.6692 48.7813C25.8648 49.2436 26.0642 49.7045 26.256 50.1691C26.2736 50.2253 26.3104 50.2736 26.36 50.3055C26.4096 50.3374 26.4688 50.3509 26.5273 50.3437C26.9102 50.3369 27.2938 50.3437 27.6768 50.3437C27.7259 50.3402 27.7747 50.3331 27.8229 50.3227C27.8319 50.1863 27.7584 50.0859 27.712 49.9802C26.8043 47.897 25.8948 45.8153 24.9836 43.7351ZM24.8764 47.1372C24.8289 47.1416 24.7811 47.1433 24.7333 47.1424H21.9734C21.9262 47.1424 21.879 47.1364 21.8093 47.1319C21.9397 46.7116 23.2331 43.6797 23.3747 43.4541C23.4287 43.4346 23.4287 43.4841 23.4392 43.5096C23.9203 44.6401 24.4008 45.7711 24.8809 46.9026C24.9011 46.9456 24.9184 46.99 24.9326 47.0353C24.9461 47.0832 24.9424 47.1312 24.8764 47.1372Z" fill="#3A4351"></path><path d="M6.1046 46.0716C5.75691 45.8593 5.38377 45.6919 4.99405 45.5732C4.60739 45.4474 4.21772 45.3312 3.83031 45.2076C3.58987 45.1338 3.35741 45.0361 3.13641 44.9161C2.9771 44.8319 2.83582 44.7173 2.72051 44.5789C2.44175 44.2274 2.37656 43.5965 3.01651 43.2847C3.10337 43.2455 3.19368 43.2144 3.28628 43.1918C3.6479 43.1028 4.02417 43.0905 4.39082 43.1558C5.00656 43.2537 5.60048 43.4584 6.14581 43.7606C6.22075 43.8033 6.29568 43.882 6.41783 43.8632C6.59567 43.487 6.77327 43.1101 6.95062 42.7324C6.9579 42.7194 6.96254 42.7051 6.96426 42.6903C6.96598 42.6754 6.96475 42.6604 6.96064 42.6461C6.95653 42.6317 6.94962 42.6183 6.94032 42.6067C6.93101 42.595 6.91948 42.5853 6.90641 42.5781C6.85831 42.544 6.80827 42.5127 6.75654 42.4844C5.61602 41.8572 4.40506 41.6212 3.11767 41.8437C2.64387 41.9237 2.19385 42.1083 1.80031 42.384C0.638808 43.1933 0.556379 45.2023 1.96816 45.9891C2.22778 46.1381 2.50135 46.2614 2.78496 46.3571C3.17163 46.4837 3.56129 46.5991 3.9502 46.7175C4.22635 46.796 4.49635 46.8947 4.75801 47.0128C4.93396 47.0901 5.0952 47.1974 5.2346 47.3297C5.33795 47.4263 5.41735 47.5457 5.46648 47.6784C5.51561 47.8111 5.53313 47.9533 5.51763 48.094C5.50214 48.2346 5.45406 48.3697 5.37722 48.4884C5.30038 48.6072 5.19689 48.7065 5.07499 48.7782C4.95299 48.8541 4.82005 48.9107 4.68082 48.9461C4.24968 49.0558 3.79968 49.0694 3.36271 48.9858C2.6171 48.8524 1.95842 48.5227 1.35819 48.0679C1.25403 47.9929 1.1671 47.8858 1.02473 47.8311L0.457464 48.9483C0.440835 48.9735 0.434518 49.0041 0.439817 49.0338C0.445117 49.0635 0.461629 49.0901 0.485939 49.108C0.549634 49.1627 0.611831 49.2189 0.677774 49.2698C1.73102 50.1091 3.07015 50.5043 4.41031 50.3714C4.9865 50.3328 5.54485 50.1557 6.03791 49.8551C7.06977 49.2039 7.27809 48.1128 7.00307 47.1956C6.85545 46.7018 6.53173 46.3451 6.1046 46.0716Z" fill="#3A4351"></path><path d="M43.4952 41.8303C43.4113 41.8303 43.3274 41.8303 43.2434 41.8303H37.1692C37.0852 41.8303 37.0013 41.8303 36.9174 41.8303C36.8997 41.8277 36.8817 41.8293 36.8648 41.835C36.8479 41.8407 36.8325 41.8502 36.82 41.8629C36.8075 41.8756 36.7981 41.8911 36.7926 41.908C36.7871 41.925 36.7857 41.943 36.7885 41.9607C36.7885 42.2244 36.7885 42.4852 36.7885 42.752C36.7885 43.1664 36.7593 43.1222 37.1489 43.1267C37.8676 43.1267 38.5869 43.1267 39.3056 43.1267C39.4614 43.1267 39.4704 43.1394 39.4757 43.2893C39.4757 43.3732 39.4757 43.4571 39.4757 43.5403V49.9383C39.4757 50.0222 39.4757 50.1062 39.4757 50.1901C39.4802 50.3145 39.5019 50.34 39.6195 50.34C39.9193 50.3437 40.219 50.3437 40.5188 50.34C40.9684 50.34 40.9122 50.3864 40.9129 49.9323C40.9129 47.7996 40.9129 45.667 40.9129 43.5343C40.9129 43.4264 40.9129 43.3193 40.9189 43.2113C40.9192 43.1994 40.9219 43.1876 40.9268 43.1768C40.9318 43.1659 40.9389 43.1561 40.9477 43.1481C40.9565 43.14 40.9669 43.1338 40.9782 43.1299C40.9895 43.126 41.0014 43.1244 41.0134 43.1252C41.1085 43.1252 41.2044 43.1199 41.3003 43.1199H43.2412C43.3251 43.1199 43.409 43.1199 43.493 43.1199C43.5604 43.1199 43.6099 43.0855 43.6106 43.0143C43.6136 42.6546 43.6136 42.2954 43.6106 41.9367C43.6121 41.8633 43.5612 41.8325 43.4952 41.8303Z" fill="#3A4351"></path></svg>